<?xml version="1.0" ?><!DOCTYPE svg  PUBLIC '-//W3C//DTD SVG 1.1//EN'  'http://www.w3.org/Graphics/SVG/1.1/DTD/svg11.dtd' [
	<!ENTITY stroke_color "#666666">
	<!ENTITY fill_color "#ffffff">
]><svg height="306.000000pt" id="svg2" inkscape:version="0.48.4 r9939" preserveAspectRatio="xMidYMid meet" sodipodi:docname="JCMP5jb1BE.svg" version="1.0" viewBox="0 0 306.000000 306.000000" width="306.000000pt" xmlns="http://www.w3.org/2000/svg" xmlns:cc="http://creativecommons.org/ns#" xmlns:dc="http://purl.org/dc/elements/1.1/" xmlns:inkscape="http://www.inkscape.org/namespaces/inkscape" xmlns:rdf="http://www.w3.org/1999/02/22-rdf-syntax-ns#" xmlns:sodipodi="http://sodipodi.sourceforge.net/DTD/sodipodi-0.dtd" xmlns:svg="http://www.w3.org/2000/svg">
  <defs id="defs52"/>
  <sodipodi:namedview bordercolor="#666666" borderopacity="1" gridtolerance="10" guidetolerance="10" id="namedview50" inkscape:current-layer="svg2" inkscape:cx="191.25" inkscape:cy="191.25" inkscape:pageopacity="0" inkscape:pageshadow="2" inkscape:window-height="744" inkscape:window-maximized="1" inkscape:window-width="1301" inkscape:window-x="65" inkscape:window-y="24" inkscape:zoom="0.61699346" objecttolerance="10" pagecolor="#ffffff" showgrid="false"/>
  <metadata id="metadata4">
Created by potrace 1.10, written by Peter Selinger 2001-2011
<rdf:RDF>
  <cc:Work rdf:about="">
    <dc:format>image/svg+xml</dc:format>
    <dc:type rdf:resource="http://purl.org/dc/dcmitype/StillImage"/>
  </cc:Work>
</rdf:RDF>
</metadata>
  <g fill="&stroke_color;" id="g6" stroke="none" transform="translate(0.000000,306.000000) scale(0.100000,-0.100000)">
    <path d="M1410 3035 l0 -25 -105 3 c-75 3 -112 1 -131 -9 -14 -8 -43 -14 -63 -14 -20 -1 -47 -7 -61 -15 -14 -8 -37 -14 -51 -15 -15 0 -32 -7 -39 -15 -7 -8 -26 -15 -42 -15 -16 0 -31 -6 -34 -15 -4 -8 -17 -15 -30 -15 -14 0 -27 -7 -30 -15 -4 -8 -15 -15 -26 -15 -11 0 -37 -13 -58 -30 -21 -16 -44 -30 -52 -30 -7 0 -28 -13 -46 -30 -18 -16 -37 -30 -41 -30 -21 0 -310 -281 -311 -304 0 -4 -13 -25 -30 -46 -16 -21 -30 -43 -30 -49 0 -6 -4 -11 -8 -11 -5 0 -21 -24 -36 -52 -15 -29 -31 -60 -36 -68 -5 -8 -18 -36 -30 -62 -12 -27 -26 -50 -31 -54 -5 -3 -9 -20 -9 -37 0 -18 -7 -41 -15 -51 -8 -11 -15 -32 -15 -46 0 -14 -5 -31 -12 -38 -16 -16 -11 -192 6 -212 17 -20 16 -381 -2 -402 -15 -19 -19 -201 -4 -206 7 -2 12 -18 12 -36 0 -18 7 -41 15 -52 8 -10 15 -33 15 -51 0 -17 4 -34 9 -37 5 -4 19 -27 31 -54 12 -26 25 -54 30 -62 5 -8 19 -35 31 -60 13 -25 42 -71 66 -102 24 -31 43 -61 43 -66 0 -15 237 -250 283 -280 22 -15 55 -39 71 -55 17 -15 37 -27 44 -27 8 0 31 -13 52 -30 21 -16 47 -30 58 -30 11 0 22 -7 26 -15 3 -8 16 -15 30 -15 13 0 26 -7 30 -15 3 -9 18 -15 34 -15 16 0 35 -7 42 -15 7 -8 24 -15 39 -15 14 -1 37 -7 51 -15 14 -8 41 -14 61 -15 20 0 48 -6 62 -13 29 -15 228 -12 258 3 23 13 132 12 189 -1 62 -14 238 -15 253 0 6 6 29 11 52 11 22 1 51 7 65 15 14 8 37 14 51 15 15 0 32 7 39 15 7 8 26 15 42 15 16 0 31 6 34 15 4 8 17 15 30 15 14 0 27 7 30 15 4 8 15 15 26 15 11 0 37 13 58 30 21 16 43 30 49 30 36 0 401 330 401 362 0 5 19 35 43 66 24 31 54 78 66 104 13 27 27 50 32 54 5 3 9 13 9 23 0 10 7 24 15 31 8 7 15 20 15 30 0 10 7 23 15 30 8 7 15 27 15 44 0 17 7 40 15 50 8 11 15 32 15 46 0 14 5 31 12 38 15 15 13 191 -2 206 -13 13 -13 399 -1 412 15 14 17 192 3 206 -7 7 -12 26 -12 44 0 17 -7 37 -15 44 -8 7 -15 27 -15 45 0 18 -7 38 -15 45 -8 7 -15 20 -15 30 0 10 -7 23 -15 30 -8 7 -15 21 -15 31 0 10 -4 20 -9 23 -5 4 -19 27 -32 54 -12 26 -42 73 -66 104 -24 31 -43 61 -43 66 0 15 -239 251 -283 280 -23 15 -55 39 -71 55 -17 15 -37 27 -44 27 -8 0 -31 14 -52 30 -21 17 -47 30 -58 30 -11 0 -22 7 -26 15 -3 8 -14 15 -24 15 -11 0 -25 7 -32 15 -7 8 -24 15 -39 15 -15 0 -32 5 -39 12 -13 13 -83 35 -152 47 -25 5 -56 13 -70 18 -14 6 -71 9 -127 6 l-103 -3 0 25 c0 37 -18 31 -22 -7 l-3 -33 -70 -3 c-38 -2 -80 0 -93 3 -23 6 -23 7 -8 24 22 24 20 41 -4 41 -15 0 -20 -7 -20 -25z m322 -111 c7 -5 22 -10 33 -11 66 -8 104 -16 132 -29 17 -8 38 -14 46 -14 8 0 28 -7 43 -15 16 -8 36 -15 45 -15 22 0 202 -91 212 -107 4 -7 16 -13 26 -13 9 0 30 -13 47 -28 16 -16 48 -41 71 -55 22 -14 56 -41 75 -60 18 -18 41 -37 51 -40 9 -4 20 -15 24 -24 4 -10 26 -38 50 -62 23 -24 45 -52 48 -62 4 -11 11 -19 16 -19 5 0 9 -7 9 -15 0 -9 7 -18 15 -21 8 -3 17 -15 21 -27 4 -12 17 -30 30 -40 13 -10 24 -27 24 -37 0 -10 7 -25 15 -34 8 -8 15 -18 15 -23 0 -4 12 -31 27 -58 14 -28 30 -63 34 -80 4 -16 18 -57 30 -90 19 -54 35 -123 42 -180 1 -11 6 -27 12 -35 15 -23 17 -371 2 -388 -7 -9 -13 -31 -14 -51 -3 -60 -15 -125 -24 -136 -4 -6 -11 -30 -15 -53 -4 -23 -10 -42 -15 -42 -4 0 -11 -16 -15 -37 -4 -20 -13 -48 -20 -62 -8 -14 -14 -32 -14 -38 0 -7 -4 -13 -9 -13 -5 0 -12 -14 -16 -30 -4 -17 -11 -30 -16 -30 -5 0 -9 -6 -9 -13 0 -7 -13 -28 -29 -46 -17 -19 -33 -46 -36 -62 -4 -16 -16 -37 -28 -46 -12 -10 -30 -30 -39 -45 -25 -39 -217 -226 -239 -233 -10 -4 -19 -11 -19 -16 0 -5 -6 -9 -12 -9 -7 0 -26 -13 -41 -29 -15 -16 -50 -39 -78 -52 -27 -13 -49 -27 -49 -31 0 -3 -13 -9 -30 -13 -16 -4 -30 -11 -30 -16 0 -5 -5 -9 -11 -9 -6 0 -25 -6 -42 -14 -18 -8 -41 -16 -52 -19 -11 -3 -47 -16 -80 -28 -54 -19 -123 -35 -180 -42 -11 -1 -27 -6 -35 -12 -19 -12 -401 -12 -420 1 -8 5 -24 10 -35 11 -57 7 -126 23 -180 42 -33 12 -69 25 -80 27 -11 3 -48 19 -81 35 -34 16 -67 29 -73 29 -6 0 -11 3 -11 8 0 4 -22 18 -49 31 -27 12 -62 35 -78 50 -15 16 -47 40 -69 54 -42 26 -244 223 -244 238 0 4 -13 21 -29 37 -17 16 -33 41 -36 55 -4 14 -20 40 -36 58 -16 18 -29 39 -29 46 0 7 -4 13 -9 13 -5 0 -12 13 -16 30 -4 16 -10 30 -13 30 -9 0 -38 75 -47 118 -4 17 -11 32 -16 32 -5 0 -9 12 -9 28 0 15 -7 40 -15 55 -16 31 -28 93 -28 147 0 19 -7 41 -14 49 -11 11 -13 50 -10 195 2 100 8 189 13 197 5 8 10 23 11 34 8 75 13 103 26 134 21 53 38 102 46 136 4 17 20 52 34 80 15 27 27 54 27 58 0 5 7 15 15 23 8 9 15 24 15 34 0 10 11 27 24 37 13 10 26 29 30 41 4 12 11 22 16 22 4 0 22 22 38 49 37 60 197 221 255 258 23 14 55 39 71 55 17 15 37 28 46 28 8 0 23 9 33 20 9 11 24 20 32 20 8 0 15 5 15 10 0 6 6 10 13 10 6 0 39 14 72 30 33 16 67 30 75 30 8 0 28 7 44 15 15 8 35 15 43 15 8 0 29 6 46 14 18 8 50 17 72 20 22 4 49 8 60 9 11 2 27 6 35 10 8 3 33 8 55 11 64 7 353 -1 367 -10z" id="path8"/>
    <path d="M1415 2832 c-16 -2 -34 -8 -39 -13 -6 -5 -33 -9 -60 -9 -28 -1 -69 -7 -91 -15 -22 -8 -54 -15 -71 -15 -17 0 -37 -7 -44 -15 -7 -8 -21 -15 -30 -15 -10 0 -31 -6 -47 -14 -15 -8 -63 -31 -106 -53 -98 -48 -118 -59 -126 -70 -3 -5 -24 -20 -46 -33 -59 -35 -272 -248 -297 -297 -12 -24 -25 -43 -29 -43 -9 0 -18 -16 -72 -127 -22 -43 -45 -91 -53 -106 -8 -16 -14 -37 -14 -47 0 -9 -6 -23 -14 -29 -8 -7 -16 -31 -19 -54 -8 -61 -27 -156 -40 -202 -15 -51 -15 -258 0 -310 15 -54 35 -151 40 -202 3 -23 11 -47 19 -54 8 -6 14 -20 14 -29 0 -10 6 -31 14 -47 8 -15 31 -63 53 -106 54 -111 63 -127 72 -127 4 0 17 -19 29 -42 26 -52 246 -272 299 -300 21 -11 42 -27 46 -34 4 -8 17 -14 27 -14 11 0 20 -4 20 -9 0 -5 35 -26 78 -46 42 -20 90 -43 105 -51 16 -8 37 -14 47 -14 9 0 23 -7 30 -15 7 -8 27 -15 44 -15 17 0 53 -7 80 -15 27 -8 68 -15 91 -15 22 0 46 -5 53 -12 15 -15 269 -15 285 1 6 6 34 11 62 11 27 1 68 7 90 15 22 8 54 15 71 15 17 0 37 7 44 15 7 8 21 15 30 15 10 0 31 6 47 14 15 8 63 31 106 53 111 54 127 63 127 72 0 4 19 17 43 29 51 26 271 246 299 299 11 21 25 41 30 44 12 8 23 26 71 126 22 43 45 91 53 106 8 16 14 37 14 47 0 9 7 23 15 30 8 7 15 27 15 46 0 18 5 45 11 61 11 29 20 74 41 220 9 64 9 102 0 165 -21 147 -30 192 -41 221 -6 16 -11 43 -11 61 0 19 -7 39 -15 46 -8 7 -15 21 -15 30 0 10 -6 31 -14 47 -8 15 -31 63 -53 106 -54 111 -63 127 -72 127 -4 0 -17 19 -29 43 -25 49 -238 262 -297 297 -22 13 -43 28 -46 33 -8 11 -28 22 -126 70 -43 22 -91 45 -106 53 -16 8 -37 14 -47 14 -9 0 -23 7 -30 15 -7 8 -27 15 -44 15 -17 0 -49 7 -71 15 -22 8 -63 14 -90 15 -28 0 -56 5 -62 11 -10 10 -190 19 -248 11z m314 -93 c166 -32 309 -82 406 -142 236 -146 384 -303 496 -528 51 -102 99 -257 118 -377 21 -135 9 -353 -24 -472 -9 -30 -19 -68 -24 -85 -20 -73 -95 -221 -165 -325 -104 -154 -308 -328 -481 -410 -342 -162 -748 -158 -1088 11 -43 22 -93 49 -110 62 -116 80 -180 134 -241 198 -70 76 -184 241 -212 307 -9 20 -22 51 -30 67 -22 49 -42 111 -65 203 -26 109 -38 360 -20 442 7 30 19 86 27 124 71 331 327 652 652 815 105 53 148 68 252 91 47 10 105 22 130 28 83 18 264 14 379 -9z m-1466 -1262 c-8 -14 -23 4 -23 27 0 35 14 41 21 9 3 -15 4 -31 2 -36z m2535 22 c-1 -13 -7 -23 -13 -22 -13 3 -18 30 -11 50 10 24 29 1 24 -28z" id="path10"/>
    <path d="M1338 2678 c-3 -7 -17 -14 -31 -15 -60 -6 -73 -9 -86 -17 -15 -9 -35 -13 -94 -19 -15 -1 -31 -6 -35 -12 -4 -5 -29 -21 -57 -35 -27 -14 -51 -28 -53 -32 -2 -5 -8 -8 -13 -8 -21 0 -100 -42 -106 -55 -3 -8 -12 -15 -19 -15 -8 0 -17 -6 -20 -14 -3 -8 -11 -13 -18 -10 -7 2 -39 -24 -72 -58 -32 -35 -78 -79 -102 -99 -29 -25 -40 -41 -36 -52 4 -13 32 10 116 93 60 61 116 110 125 110 8 0 32 14 53 30 36 28 90 41 90 21 0 -5 -12 -23 -26 -40 -22 -26 -25 -37 -19 -69 7 -44 -22 -107 -56 -117 -10 -4 -26 -19 -33 -34 -8 -15 -38 -52 -66 -82 -69 -74 -159 -261 -175 -364 -6 -37 -25 -88 -47 -125 -5 -8 -19 -38 -33 -67 -13 -28 -33 -54 -44 -58 -11 -3 -34 -22 -51 -42 -17 -19 -34 -32 -37 -29 -4 3 -7 50 -9 103 -1 64 -6 98 -13 98 -7 0 -12 -51 -15 -158 -3 -143 -2 -159 14 -169 14 -9 16 -17 8 -39 -6 -19 -6 -34 2 -48 6 -12 8 -26 4 -32 -3 -6 2 -19 11 -29 9 -10 14 -23 11 -29 -7 -10 10 -62 23 -71 9 -6 66 -125 76 -157 3 -13 11 -23 16 -23 5 0 9 -6 9 -12 1 -7 14 -29 30 -48 17 -19 30 -40 30 -46 0 -17 198 -214 214 -214 8 0 28 -13 46 -30 18 -16 38 -30 45 -30 8 0 17 -4 20 -10 3 -6 17 -10 30 -10 12 0 25 -7 29 -15 3 -8 14 -15 24 -15 11 0 25 -7 32 -15 7 -8 23 -15 36 -15 15 0 24 -6 24 -15 0 -8 5 -15 10 -16 84 -7 113 10 41 24 -24 5 -65 22 -91 38 -26 16 -54 29 -63 29 -8 0 -18 7 -21 15 -3 9 -23 23 -43 32 -22 9 -32 18 -25 21 8 2 24 -1 37 -8 21 -11 31 -7 101 39 59 38 87 51 115 51 21 0 40 -4 43 -9 3 -5 18 -11 33 -14 16 -2 55 -13 88 -23 82 -24 325 -26 405 -3 184 54 214 55 276 4 24 -20 60 -39 79 -42 19 -3 35 -9 35 -13 0 -9 -39 -35 -100 -68 -61 -32 -70 -42 -38 -42 14 0 29 7 32 16 3 9 12 14 19 11 6 -2 28 4 47 15 19 10 40 18 47 18 7 0 13 5 13 10 0 6 6 10 14 10 8 0 28 14 46 30 18 17 38 30 44 30 17 0 216 197 216 214 0 8 14 28 30 46 17 18 30 38 30 46 0 8 4 14 10 14 5 0 13 12 16 27 4 16 10 30 13 33 12 10 51 90 51 104 0 9 4 16 9 16 12 0 32 60 25 72 -3 5 2 18 11 28 12 13 17 37 18 80 0 37 5 64 13 71 19 16 11 324 -8 324 -10 0 -14 -29 -18 -112 -3 -61 -8 -114 -12 -118 -4 -4 -17 16 -29 45 -18 41 -30 55 -63 71 -36 17 -43 26 -54 67 -7 26 -21 76 -32 112 -11 36 -24 85 -30 108 -10 41 -39 107 -61 142 -5 8 -21 39 -35 67 -14 29 -31 56 -38 60 -7 5 -19 19 -26 33 -7 13 -23 33 -36 43 -13 9 -25 26 -29 36 -3 10 -16 23 -30 29 -29 14 -79 106 -71 135 3 11 -6 42 -20 68 l-24 49 29 0 c16 0 31 -6 35 -15 3 -8 14 -15 25 -15 11 0 23 -4 26 -10 3 -5 13 -10 21 -10 8 0 14 5 14 10 0 6 -6 10 -14 10 -8 0 -16 7 -19 15 -6 14 -85 55 -106 55 -6 0 -11 4 -11 9 0 5 -11 12 -25 15 -14 4 -25 11 -25 16 0 6 -10 10 -23 10 -12 0 -30 9 -40 20 -10 12 -31 21 -49 21 -18 1 -40 2 -49 3 -9 1 -23 7 -31 14 -9 7 -23 10 -32 6 -9 -3 -22 -1 -30 5 -7 6 -20 9 -28 6 -8 -3 -21 1 -28 10 -10 12 -42 15 -185 15 -130 0 -174 -3 -177 -12z m437 -153 c21 -8 50 -15 65 -15 15 0 33 -7 40 -15 7 -8 17 -15 23 -15 12 0 117 -49 134 -62 14 -11 0 -47 -23 -61 -8 -4 -14 -14 -14 -21 0 -8 -7 -19 -15 -26 -23 -19 -18 -38 13 -45 15 -3 46 -23 67 -44 22 -20 48 -40 58 -44 9 -4 21 -17 26 -29 5 -13 21 -32 35 -42 14 -10 26 -25 26 -33 0 -7 7 -16 15 -19 8 -4 15 -11 15 -16 0 -6 14 -30 30 -55 17 -24 30 -49 30 -56 0 -7 7 -21 15 -31 8 -11 15 -30 15 -42 0 -12 7 -27 15 -34 8 -7 15 -25 15 -40 0 -15 6 -43 14 -61 8 -19 17 -77 21 -129 3 -52 8 -97 11 -100 3 -3 38 -5 77 -5 66 0 72 -2 70 -20 -2 -11 -7 -58 -12 -105 -9 -83 -57 -240 -79 -262 -7 -7 -12 -18 -12 -25 0 -7 -20 -42 -45 -79 -25 -36 -45 -68 -45 -72 0 -4 -26 -35 -58 -69 -31 -34 -62 -70 -68 -80 -6 -10 -21 -23 -34 -30 -12 -6 -25 -15 -29 -20 -3 -4 -27 -25 -54 -46 -48 -39 -87 -44 -87 -10 0 8 -6 27 -14 41 -7 15 -20 40 -27 56 -17 36 -35 43 -58 22 -10 -9 -22 -16 -28 -16 -6 0 -16 -7 -23 -15 -7 -8 -27 -15 -45 -15 -18 0 -38 -7 -45 -15 -7 -8 -27 -15 -44 -15 -17 -1 -42 -7 -56 -15 -36 -20 -304 -20 -340 0 -14 8 -39 14 -56 15 -17 0 -37 7 -44 15 -7 8 -25 15 -41 15 -15 0 -49 14 -74 31 -52 35 -65 34 -84 -7 -7 -16 -20 -41 -27 -56 -8 -14 -14 -33 -14 -42 0 -9 -11 -18 -25 -22 -19 -5 -31 0 -48 17 -33 34 -79 72 -101 84 -10 6 -24 18 -30 28 -6 10 -37 46 -68 79 -32 34 -58 65 -58 69 0 4 -20 37 -45 73 -25 37 -45 72 -45 79 0 7 -5 18 -12 25 -23 23 -70 179 -79 262 -4 46 -10 93 -11 105 -3 19 2 20 73 18 l76 -2 7 52 c3 29 6 74 6 100 0 26 7 64 15 84 8 19 15 47 15 62 0 14 7 35 15 45 8 11 15 30 15 42 0 12 7 27 15 34 8 7 15 21 15 31 0 10 5 21 11 24 5 4 14 17 20 28 14 33 33 61 47 70 6 4 12 14 12 21 0 7 12 22 26 32 14 10 30 29 35 42 5 12 17 25 26 29 10 4 36 24 58 44 21 21 52 41 67 44 31 7 36 26 13 45 -8 7 -15 18 -15 26 0 7 -6 17 -14 21 -14 8 -40 52 -34 58 8 8 136 65 145 65 6 0 16 7 23 15 7 8 26 15 42 15 16 0 39 5 51 12 36 19 142 27 319 23 120 -3 177 -8 203 -20z m383 -1941 c-9 -9 -22 -14 -30 -11 -8 3 -4 8 12 15 35 15 37 14 18 -4z" id="path12"/>
    <path d="M1465 2104 c-27 -8 -77 -22 -110 -31 -33 -9 -79 -25 -103 -35 -63 -28 -171 -104 -210 -149 -19 -21 -41 -39 -49 -39 -8 0 -44 14 -79 31 -110 52 -132 28 -85 -91 37 -91 42 -113 35 -165 -5 -43 -1 -58 25 -107 17 -32 31 -67 31 -78 0 -11 7 -23 15 -26 26 -10 18 -51 -10 -58 -34 -9 -42 -32 -20 -56 14 -15 31 -20 69 -20 43 0 57 -5 84 -30 18 -17 43 -30 55 -30 12 -1 33 -7 47 -15 37 -21 182 -20 223 2 41 21 123 21 162 0 17 -9 36 -17 43 -17 6 0 12 -4 12 -9 0 -5 20 -19 45 -31 56 -27 183 -150 219 -212 15 -27 32 -48 36 -48 5 0 16 10 24 22 22 31 23 275 1 304 -8 10 -15 35 -15 54 0 20 -7 45 -15 56 -8 12 -18 39 -24 60 -5 22 -12 47 -16 57 -6 14 -2 17 26 16 19 0 61 -5 94 -10 33 -5 87 -12 120 -15 32 -3 68 -10 79 -16 11 -6 36 -15 54 -19 42 -9 53 10 28 51 -9 16 -16 35 -16 43 0 8 -7 20 -15 27 -8 7 -15 18 -15 26 0 26 -94 150 -144 189 -62 49 -132 85 -166 85 -34 0 -110 30 -110 44 0 6 19 22 42 36 22 14 53 33 67 42 40 26 108 58 125 58 29 0 26 19 -6 35 -34 18 -64 27 -158 46 -30 6 -81 17 -112 25 -73 18 -218 17 -283 -2z m295 -109 l24 -25 -18 -50 c-18 -49 -17 -50 3 -83 23 -37 79 -85 131 -112 19 -10 44 -26 55 -36 11 -11 41 -37 67 -60 47 -41 47 -41 32 -70 -13 -26 -20 -29 -67 -31 -28 -1 -62 -1 -74 -1 -13 1 -38 -14 -63 -39 -38 -38 -40 -43 -40 -102 0 -33 5 -96 12 -138 6 -43 9 -81 5 -84 -8 -8 -65 14 -88 32 -22 19 -191 104 -207 104 -20 0 -5 75 26 128 29 51 40 154 23 218 -20 74 -127 154 -206 154 -33 0 -93 -25 -133 -55 -43 -32 -98 -112 -94 -137 1 -12 -12 -25 -39 -39 l-41 -20 -25 23 c-52 49 -84 108 -81 150 3 37 6 41 53 61 28 12 68 34 90 50 22 15 44 27 48 27 5 0 27 16 50 35 22 19 47 35 56 35 8 0 22 6 30 14 17 16 158 63 206 69 17 2 78 5 136 6 101 1 107 0 129 -24z m-319 -288 c77 -52 100 -138 60 -228 -32 -71 -66 -108 -126 -140 -62 -32 -115 -37 -155 -14 -14 8 -42 14 -62 15 -44 0 -108 28 -108 47 0 7 17 15 39 19 54 9 101 51 101 91 0 17 7 36 15 43 8 7 15 25 15 41 0 16 4 29 9 29 5 0 13 10 17 23 8 26 44 67 60 67 6 0 17 7 24 15 18 22 72 18 111 -8z m-463 -129 c5 -7 12 -29 15 -48 26 -157 28 -173 18 -183 -16 -16 -43 0 -36 22 3 11 -1 25 -10 34 -8 9 -15 31 -15 51 0 19 -8 52 -17 72 -17 35 -17 36 2 50 23 17 30 17 43 2z" id="path14"/>
    <path d="M1328 1539 c-14 -8 -18 -24 -18 -74 0 -54 4 -68 22 -85 21 -20 23 -20 35 -4 13 18 18 130 7 158 -7 18 -21 20 -46 5z" id="path16"/>
    <path d="M2236 2442 c-4 -7 37 -56 99 -118 79 -80 106 -102 111 -90 4 11 -10 31 -47 64 -29 26 -76 71 -105 101 -32 34 -54 50 -58 43z" id="path18"/>
    <path d="M570 2199 c0 -6 -10 -19 -22 -29 -17 -14 -20 -22 -12 -30 8 -8 18 -2 37 24 31 40 33 46 12 46 -8 0 -15 -5 -15 -11z" id="path20"/>
    <path d="M2450 2201 c0 -14 64 -121 73 -121 11 0 9 38 -3 45 -5 3 -10 15 -10 25 0 10 -9 22 -20 25 -11 3 -20 13 -20 21 0 8 -4 14 -10 14 -5 0 -10 -4 -10 -9z" id="path22"/>
    <path d="M514 2117 c-3 -9 -4 -24 -2 -34 3 -16 5 -15 17 6 9 16 10 26 2 34 -7 7 -12 6 -17 -6z" id="path24"/>
    <path d="M485 2049 c-10 -15 3 -25 16 -12 7 7 7 13 1 17 -6 3 -14 1 -17 -5z" id="path26"/>
    <path d="M2530 2050 c0 -13 40 -89 51 -96 5 -3 9 6 9 19 0 14 -7 27 -15 31 -8 3 -15 17 -15 31 0 16 -6 25 -15 25 -8 0 -15 -4 -15 -10z" id="path28"/>
    <path d="M457 2004 c-11 -11 -8 -44 3 -44 15 0 24 30 13 41 -5 5 -12 6 -16 3z" id="path30"/>
    <path d="M2596 1941 c-9 -13 14 -102 24 -96 5 3 7 24 5 46 -3 43 -18 69 -29 50z" id="path32"/>
    <path d="M419 1938 c0 -1 -2 -22 -4 -45 -3 -46 11 -68 20 -31 10 46 10 71 -2 75 -7 3 -13 3 -14 1z" id="path34"/>
    <path d="M390 1791 c0 -16 -3 -36 -6 -45 -3 -9 -2 -16 3 -16 6 0 15 17 21 39 15 49 15 51 -3 51 -10 0 -15 -10 -15 -29z" id="path36"/>
    <path d="M2620 1808 c0 -28 22 -88 30 -83 4 3 7 24 6 47 -2 31 -7 44 -19 46 -9 2 -17 -2 -17 -10z" id="path38"/>
    <path d="M1900 443 c-42 -14 -43 -17 -10 -23 35 -6 64 5 54 21 -6 10 -20 10 -44 2z" id="path40"/>
    <path d="M1226 413 c-15 -16 -3 -23 42 -23 30 1 42 4 32 9 -23 13 -66 21 -74 14z" id="path42"/>
    <path d="M1762 406 c-18 -6 -31 -14 -28 -17 10 -9 87 3 83 14 -5 16 -18 17 -55 3z" id="path44"/>
    <path d="M1342 369 c3 -8 57 -11 171 -11 204 1 187 0 187 12 0 6 -67 10 -181 10 -127 0 -180 -3 -177 -11z" id="path46"/>
    <path d="M3027 1714 c-9 -10 2 -24 19 -24 8 0 14 7 14 15 0 15 -21 21 -33 9z" id="path48"/>
  </g>
  <path d="m 207.29634,226.97945 c -17.87889,-9.38659 -17.38935,-8.2619 -11.0368,-25.35657 5.95202,-16.01683 3.83062,-27.44839 -6.83081,-36.80926 -10.0696,-8.84123 -18.77894,-9.67973 -31.61204,-3.04347 -5.33873,2.76077 -14.86542,14.37557 -14.86542,18.12371 0,2.38745 -6.16771,7.14216 -9.26466,7.14216 -3.51184,0 -11.80525,-13.02531 -11.80525,-18.54089 0,-4.6042 1.04107,-5.66392 10.94014,-11.13601 6.01709,-3.32617 15.66974,-8.9733 21.45034,-12.54916 14.43838,-8.93155 28.29412,-12.92314 46.32262,-13.34473 18.63824,-0.43585 20.64602,0.83462 19.14932,12.11727 -0.96526,7.2765 -0.65031,8.40018 3.62015,12.91578 2.57256,2.72024 8.68877,7.71331 13.59158,11.0957 4.90281,3.38239 11.39867,8.746 14.43524,11.91912 7.05263,7.36978 5.24165,10.07535 -7.44832,11.1277 -7.83769,0.64996 -9.8408,1.52963 -13.9464,6.1246 l -4.79419,5.36562 1.12295,16.76394 c 0.89704,13.39157 0.69358,16.72965 -1.01141,16.5935 -1.1739,-0.0937 -9.28156,-3.92279 -18.01704,-8.50901 l 0,0 z" id="path3029" inkscape:connector-curvature="0" style="fill:&fill_color;;fill-opacity:1;stroke:&fill_color;;stroke-width:1.62076271;stroke-opacity:1" transform="scale(0.8,0.8)"/>
  <path d="m 151.05508,215.93569 c -3.11996,-0.86015 -8.4077,-2.27366 -11.75052,-3.14113 -3.34283,-0.86747 -6.07045,-2.09495 -6.06138,-2.72774 0.009,-0.63278 2.91521,-2.3679 6.4581,-3.85583 4.1722,-1.75221 7.09251,-4.32174 8.28914,-7.29343 4.38713,-10.89499 5.27635,-12.97712 7.74899,-18.14438 3.22724,-6.74421 11.32885,-13.18632 16.58314,-13.18632 5.13881,0 10.56023,3.88706 13.58819,9.74248 6.79961,13.149 -1.54515,31.36704 -17.40252,37.99267 -6.69215,2.79616 -9.21496,2.88486 -17.45314,0.61368 z m 21.61559,-10.02601 c 2.05846,-8.70404 0.12562,-17.2529 -3.90075,-17.2529 -4.19339,0 -6.90625,7.1585 -5.52161,14.57 2.093,11.20301 7.07211,12.62075 9.42236,2.6829 z" id="path3031" inkscape:connector-curvature="0" style="fill:&fill_color;;fill-opacity:1;stroke:&fill_color;;stroke-width:1.62076271;stroke-opacity:1" transform="scale(0.8,0.8)"/>
  <path d="m 121.15819,205.48566 c -1.40805,-5.2445 -3.23226,-11.58237 -4.05379,-14.08417 -1.15359,-3.51301 -0.94841,-4.75796 0.90115,-5.4677 3.41431,-1.3102 3.6745,-0.76622 6.36877,13.31547 3.01099,15.73705 0.59331,20.42519 -3.21613,6.2364 z" id="path3033" inkscape:connector-curvature="0" style="fill:&fill_color;;fill-opacity:1;stroke:&fill_color;;stroke-width:1.62076271;stroke-opacity:1" transform="scale(0.8,0.8)"/>
  <path d="M 111.08962,293.49056 C 85.795671,272.98565 66.204899,238.5683 62.766856,208.59646 l -1.152187,-10.04443 9.468619,-0.49053 9.468619,-0.49053 1.015716,-12.15572 c 1.640083,-19.62794 5.867553,-33.37214 15.191911,-49.39137 8.031176,-13.79755 19.658266,-26.73372 30.123296,-33.51483 4.38054,-2.838495 7.96463,-5.479306 7.96463,-5.868464 0,-0.389158 -2.22228,-4.000352 -4.9384,-8.024874 -2.71611,-4.024523 -4.72181,-7.447069 -4.45709,-7.605663 4.87454,-2.92039 28.35165,-12.400696 34.01944,-13.737414 11.01827,-2.598599 50.32947,-2.22531 62.27282,0.591327 9.43524,2.225139 30.69661,11.342571 32.22783,13.82013 0.39673,0.641898 -1.42606,4.00473 -4.05063,7.472959 -2.62456,3.46823 -4.79222,6.730047 -4.81702,7.248484 -0.0248,0.518437 3.56774,3.283641 7.98341,6.144895 11.53651,7.4754 25.36673,23.51104 31.61889,36.66089 10.37105,21.81297 10.44267,22.06521 14.81512,52.17177 0.71237,4.90511 1.18259,5.21162 9.61042,6.26461 10.36387,1.29488 10.38984,1.38271 6.34616,21.46671 -5.07449,25.2039 -25.48589,57.54072 -46.70785,73.99714 -5.23292,4.05782 -10.38645,7.37786 -11.45229,7.37786 -1.06583,0 -3.60051,-4.01139 -5.63262,-8.9142 -3.9838,-9.61166 -6.83171,-10.97828 -13.61525,-6.53354 -1.99834,1.30937 -9.44845,4.32955 -16.55578,6.71152 -11.02152,3.69376 -15.66429,4.33084 -31.56123,4.33084 -15.89694,0 -20.53971,-0.63708 -31.56122,-4.33084 -7.10735,-2.38197 -14.55746,-5.40215 -16.55579,-6.71152 -6.78354,-4.44474 -9.63144,-3.07812 -13.61526,6.53354 -2.3202,5.59791 -4.63895,8.87305 -6.23282,8.8036 -1.39595,-0.0608 -6.30035,-3.16056 -10.89868,-6.88825 l 0,0 z m 130.90074,-27.04568 c 3.54291,-12.73274 0.7421,-35.97894 -6.81231,-56.54095 l -3.20992,-8.73697 13.81592,1.12102 c 7.59875,0.61655 17.87328,2.17782 22.8323,3.46948 17.62697,4.59125 18.67329,2.96124 9.66183,-15.05161 -9.74559,-19.48029 -24.88517,-32.40562 -44.5642,-38.04641 -4.01138,-1.14982 -7.19584,-2.77775 -7.07657,-3.61762 0.31459,-2.21518 20.06261,-13.90421 25.31015,-14.98131 11.162,-2.29108 1.68261,-7.93281 -22.48612,-13.38276 -35.7667,-8.06527 -72.36985,0.18839 -95.79962,21.60188 l -8.68353,7.93625 -11.34104,-3.86104 c -9.28334,-3.1605 -11.58733,-3.46256 -12.6984,-1.66481 -1.322274,2.13949 0.80723,12.33898 4.54875,21.78677 0.99379,2.50944 1.81027,7.97951 1.8144,12.15572 0.007,7.31785 5.39776,23.45859 9.47533,28.37175 1.61044,1.94046 1.14666,2.97998 -2.54084,5.69511 -3.73719,2.75172 -4.20262,3.82405 -2.71371,6.25221 0.98843,1.61195 4.46577,3.36513 7.72742,3.89594 3.26165,0.53081 10.11104,3.08351 15.22086,5.67267 8.14421,4.12669 10.99049,4.69851 23.06708,4.6342 7.57706,-0.0404 16.47076,-0.67617 19.76377,-1.41293 3.29301,-0.73679 8.53428,-0.86178 11.64726,-0.27777 10.48386,1.96678 32.88683,19.73713 42.65798,33.83691 4.75428,6.86044 8.67254,7.29225 10.38321,1.14427 l 0,0 z" id="path3035" inkscape:connector-curvature="0" style="fill:&fill_color;;fill-opacity:1;stroke:&fill_color;;stroke-width:1.62076271;stroke-opacity:1" transform="scale(0.8,0.8)"/>
  <path d="M 167.26271,344.86069 C 140.43063,339.71345 117.97408,330.13324 98.194528,315.39545 82.640446,303.80605 73.403534,294.0295 61.914076,276.99541 45.307696,252.37506 37.905877,228.83745 36.420976,195.928 35.631931,178.44061 35.990566,174.64233 39.940728,158.65046 47.483716,128.11336 63.642063,100.32054 85.666622,80.000625 117.80246,50.352011 162.05222,34.94446 202.44552,39.338779 c 29.25091,3.182157 53.23648,11.778397 74.56448,26.72332 33.82879,23.704458 56.14496,58.264641 64.61521,100.067111 3.51943,17.36911 2.40988,46.76387 -2.47157,65.47778 -10.84229,41.56589 -43.28817,80.34345 -83.37848,99.64945 -21.48555,10.34666 -34.0404,13.19465 -60.95948,13.82832 -12.92558,0.30426 -25.32442,0.20344 -27.55297,-0.22407 l 0,0 z m 45.38136,-8.7145 c 0,-1.00013 -8.34205,-1.62077 -21.78465,-1.62077 -12.77479,0 -22.19893,0.67033 -22.78633,1.62077 -0.64965,1.05114 7.00648,1.62076 21.78465,1.62076 14.11037,0 22.78633,-0.61711 22.78633,-1.62076 z m -48.62288,-3.11274 c 0,-1.8956 -9.08799,-3.95505 -11.33224,-2.56804 -0.92771,0.57336 -1.26713,1.72142 -0.75427,2.55125 1.20963,1.95721 12.08651,1.97232 12.08651,0.0168 z m 63.20974,-1.11488 c 0,-2.03018 -0.98596,-2.36333 -4.4571,-1.50607 -7.31994,1.80781 -8.18289,4.11292 -1.53972,4.11292 4.42964,0 5.99682,-0.68125 5.99682,-2.60685 l 0,0 z m -79.71961,-2.35179 c -0.31481,-0.9444 -4.79682,-3.43404 -9.96004,-5.53254 -5.16321,-2.09848 -11.84466,-5.49899 -14.84765,-7.55667 l -5.46,-3.74124 4.34482,-1.67631 c 2.38965,-0.92197 8.36957,-3.65364 13.28871,-6.07037 l 8.9439,-4.39407 10.50525,3.3732 c 16.38008,5.25955 46.82289,5.9875 65.33397,1.56225 18.33448,-4.38303 21.72594,-4.30414 29.05467,0.67586 3.31589,2.2532 7.63457,4.69071 9.59707,5.41669 3.25028,1.20236 2.66425,1.92037 -6.57762,8.059 -5.5802,3.70647 -11.37061,6.7502 -12.86754,6.76384 -1.49695,0.013 -3.77771,0.6929 -5.06835,1.5094 -1.82704,1.15588 -1.32263,1.74159 2.27814,2.64533 3.4014,0.85371 5.14121,0.45443 6.57718,-1.5094 1.07386,-1.46857 3.00255,-2.67014 4.28597,-2.67014 1.28343,0 3.02638,-0.58046 3.87323,-1.2899 0.84685,-0.70944 4.4571,-2.2714 8.02278,-3.47103 13.64544,-4.59079 34.29093,-21.43583 47.12693,-38.45172 9.42551,-12.49483 23.37624,-38.60389 23.37624,-43.74908 0,-1.73397 0.69473,-3.8474 1.54384,-4.69652 4.37062,-4.37061 6.68711,-58.99648 2.50807,-59.14391 -0.89142,-0.0314 -1.76305,1.24807 -1.93697,2.84336 -2.41129,22.11888 -2.42807,22.19795 -4.03481,19.03039 -0.88265,-1.74006 -4.45455,-5.73296 -7.93757,-8.87311 -5.68583,-5.12612 -6.90659,-7.72208 -11.95013,-25.41216 -6.68158,-23.4354 -15.11963,-39.38532 -30.43987,-57.5386 -7.17479,-8.50157 -11.50023,-15.247242 -12.61624,-19.675497 -0.93405,-3.706195 -2.43001,-8.473809 -3.32437,-10.594697 -2.25537,-5.348374 -1.12198,-5.764594 5.20071,-1.909905 5.45255,3.3242 11.13271,4.407568 11.11187,2.11935 -0.028,-3.068519 -33.20668,-21.204175 -42.93915,-23.470761 -3.56567,-0.830407 -9.40042,-1.889815 -12.9661,-2.35424 -3.56568,-0.464425 -7.17592,-1.499049 -8.02277,-2.299164 -2.0098,-1.89888 -43.38579,-1.892246 -48.22247,0.0077 -2.04764,0.804369 -9.08611,2.664746 -15.64106,4.134173 -20.25123,4.539736 -53.639162,24.729622 -69.688432,42.141026 -6.669217,7.235245 -8.275277,10.609775 -5.049577,10.609775 0.921514,0 7.864471,-5.829657 15.428796,-12.954789 C 101.74541,80.700531 116.8634,70.34107 121.12746,70.34107 c 0.53604,0 -0.53373,2.118283 -2.37727,4.707294 -1.9927,2.798503 -3.35188,7.236775 -3.35188,10.945269 0,5.258567 -1.26979,7.583318 -8.08745,14.806687 -15.75248,16.68988 -25.951421,34.53795 -31.688168,55.45407 -4.14669,15.11879 -12.513727,30.85114 -19.17222,36.04908 -3.140217,2.4514 -6.113124,4.45709 -6.606461,4.45709 -0.493337,0 -0.908145,-4.19372 -0.921796,-9.31938 -0.02874,-10.79062 -2.361867,-16.53118 -4.025218,-9.90386 -2.197098,8.75393 1.010625,54.10967 4.041164,57.14023 0.896299,0.89629 1.629636,2.88819 1.629636,4.42643 0,4.18307 11.311403,26.73675 19.309449,38.50088 7.83123,11.51876 22.982966,27.09038 33.167094,34.08622 3.67471,2.52429 12.30186,7.2541 19.17143,10.5107 6.86957,3.25658 12.9297,6.63229 13.46694,7.50157 1.33891,2.16641 12.5531,2.03689 11.82861,-0.13663 l 0,3e-5 z M 52.103706,159.77892 c 1.130994,-3.94355 0.974342,-5.15816 -0.665263,-5.15816 -2.556464,0 -4.112172,3.54518 -4.112172,9.37091 0,5.38319 2.710945,2.99268 4.777435,-4.21275 z m 280.476804,2.23093 c 0,-5.63754 -2.47277,-8.927 -4.77829,-6.35645 -1.60525,1.78978 1.1181,11.93346 3.20386,11.93346 0.86594,0 1.57443,-2.50965 1.57443,-5.57701 z M 55.430085,145.61092 c 0,-5.40581 -1.980156,-7.30842 -4.076347,-3.91671 -1.467077,2.37377 0.804401,11.5159 2.587469,10.4139 0.818882,-0.5061 1.488878,-3.42983 1.488878,-6.49719 z m 273.228165,-1.40405 c -1.03906,-5.53866 -3.02465,-7.35611 -4.83552,-4.42606 -0.4649,0.75222 -0.0848,4.12171 0.84457,7.48775 2.18227,7.90353 5.56168,5.31099 3.99095,-3.06169 z M 60.006023,134.63211 c 0.31017,-1.59931 -0.516636,-2.70203 -2.025953,-2.70203 -1.503477,0 -2.549985,1.38575 -2.549985,3.37659 0,3.94987 3.787354,3.39156 4.575938,-0.67456 l 0,0 z M 324.47669,136.231 c 0,-3.04175 -4.82288,-12.40473 -6.38969,-12.40473 -0.70949,0 -1.69535,-2.49796 -2.1908,-5.55103 -0.8822,-5.43636 -6.03517,-12.27736 -9.24789,-12.27736 -2.75148,0 -1.83662,2.59504 3.94231,11.18247 3.05967,4.54668 5.23289,8.26668 4.82933,8.26668 -0.40353,0 0.75461,2.91738 2.57369,6.48305 3.26725,6.40434 6.48305,8.53774 6.48305,4.30092 z M 63.533898,127.0678 c 0,-0.89142 -0.686299,-1.62077 -1.52511,-1.62077 -0.838811,0 -1.975868,0.72935 -2.526796,1.62077 -0.550929,0.89142 0.135366,1.62076 1.52511,1.62076 1.389737,0 2.526796,-0.72934 2.526796,-1.62076 z m 3.883763,-5.81893 c 1.102295,-2.87254 -0.03037,-5.52641 -2.358653,-5.52641 -0.838811,0 -1.52511,1.82336 -1.52511,4.0519 0,4.53382 2.36521,5.43179 3.883763,1.47451 z m 4.497621,-8.20876 c 3.269056,-2.95845 3.963656,-7.04223 1.197799,-7.04223 -2.28583,0 -7.890526,6.90244 -6.902624,8.5009 1.134091,1.835 2.432098,1.50311 5.704825,-1.45867 z M 306.64831,102.3636 c 0,-2.3316 -23.59601,-25.539447 -25.9666,-25.539447 -3.51681,0 -1.04026,3.738686 10.17659,15.362851 11.23317,11.641076 15.79001,14.577936 15.79001,10.176596 z" id="path3037" inkscape:connector-curvature="0" style="fill:&fill_color;;fill-opacity:1;stroke:&fill_color;;stroke-width:1.62076271;stroke-opacity:1" transform="scale(0.8,0.8)"/>
  <path d="M 153.30755,364.54115 C 120.48429,356.94171 98.874158,345.86843 74.478716,324.14836 57.379182,308.92408 51.249512,301.85069 40.633379,285.09216 22.555896,256.55523 14.189982,227.52231 14.246343,193.51907 14.332881,141.30873 32.01688,100.87375 70.833718,64.130381 96.109859,40.204408 122.18753,26.827788 158.34852,19.239405 c 15.10614,-3.170024 48.44609,-3.0923 64.02012,0.149246 37.38615,7.781475 76.95239,29.90066 97.61248,54.569473 25.90632,30.932986 35.59386,50.478316 43.43887,87.641146 8.2009,38.84867 -1.72186,90.21717 -23.66487,122.50922 -2.1632,3.18342 -3.93309,6.56801 -3.93309,7.52131 0,2.76797 -26.6136,30.52371 -37.8113,39.43398 -40.32766,32.08969 -95.53303,44.86156 -144.70318,33.47737 z m 70.68186,-11.2841 c 11.21216,-2.08028 20.30879,-5.18273 33.46717,-11.41413 21.85969,-10.35205 29.92113,-15.76259 45.41716,-30.48231 33.63183,-31.94695 51.14079,-72.40377 51.35034,-118.65192 0.12037,-26.56752 -4.24535,-45.80717 -15.88863,-70.02086 C 328.0895,101.38013 320.06305,90.408779 302.34998,73.499328 283.44556,55.452612 267.0521,45.329182 242.62818,36.61944 212.26799,25.792782 167.63879,25.792782 137.2786,36.61944 112.96221,45.290838 96.139548,55.767249 76.723699,74.330371 61.156095,89.214258 52.527009,100.54312 44.3185,116.87414 c -9.226313,18.35597 -11.306476,24.41429 -15.743038,45.85044 -4.851725,23.44208 -4.842532,36.46818 0.04232,59.96822 7.246514,34.8615 19.855169,59.35004 42.831909,83.18814 15.100631,15.66673 27.528112,24.52788 48.810899,34.80358 16.68069,8.05371 23.1226,10.2596 36.46716,12.48736 8.91419,1.48815 16.57125,3.06659 17.01565,3.50767 1.64807,1.63569 35.36024,-0.66061 50.24601,-3.4225 l 0,0 z" id="path3039" inkscape:connector-curvature="0" style="fill:&fill_color;;fill-opacity:1;stroke:&fill_color;;stroke-width:1.62076271;stroke-opacity:1" transform="scale(0.8,0.8)"/>
</svg>