<?xml version="1.0" ?><!DOCTYPE svg  PUBLIC '-//W3C//DTD SVG 20010904//EN'  'http://www.w3.org/TR/2001/REC-SVG-20010904/DTD/svg10.dtd' [
	<!ENTITY stroke_color "#666666">
	<!ENTITY fill_color "#ffffff">
]><svg height="101.000000pt" preserveAspectRatio="xMidYMid meet" style="" version="1.0" viewBox="0 0 99.000000 101.000000" width="99.000000pt" xmlns="http://www.w3.org/2000/svg">
<metadata style="">
Created by potrace 1.10, written by Peter Selinger 2001-2011
</metadata>
<g fill="&fill_color;" stroke="&stroke_color;" transform="translate(0.000000,101.000000) scale(0.100000,-0.100000)">
<path d="M387 662 c-19 -20 -27 -39 -27 -64 0 -23 -10 -49 -30 -76 -16 -23 -30 -44 -30 -46 0 -2 12 -1 28 3 17 5 27 15 28 27 2 45 5 48 20 20 12 -21 13 -31 5 -36 -8 -4 -11 -45 -9 -126 l3 -119 28 -3 c25 -3 32 5 28 31 0 4 39 7 89 7 83 0 90 -1 90 -20 0 -15 7 -20 24 -20 14 0 27 4 30 9 3 5 11 94 16 198 l10 188 -30 28 c-29 26 -34 27 -138 27 -106 0 -109 -1 -135 -28z m274 -29 c0 -5 2 -23 3 -40 4 -34 -16 -47 -27 -19 -6 15 -58 10 -69 -8 -8 -12 -136 -21 -173 -12 -22 6 -24 9 -15 27 6 11 8 29 5 39 -6 19 -1 20 134 20 78 0 141 -3 142 -7z m-21 -87 c0 -7 -7 -19 -16 -27 -18 -15 -47 -2 -52 25 -3 12 4 16 32 16 24 0 36 -5 36 -14z m-73 -48 c15 -14 31 -19 47 -16 l26 5 0 -105 c0 -101 -1 -104 -18 -89 -27 25 -178 24 -205 0 -19 -18 -19 -16 -15 97 2 63 6 120 10 125 3 6 34 9 70 7 46 -3 69 -9 85 -24z" style=""/>
<path d="M220 603 c0 -3 46 -77 58 -93 2 -2 19 13 39 33 19 21 33 41 30 44 -6 6 -127 21 -127 16z" style=""/>
<path d="M290 140 l0 -90 233 0 232 0 -3 90 -3 90 -230 0 -229 0 0 -90z m398 60 l32 0 0 -60 0 -60 -200 0 -200 0 0 59 0 60 38 3 c20 2 95 2 167 1 72 -1 145 -2 163 -3z" style=""/>
</g>
</svg>